<?xml version="1.0" standalone="no"?>
<!DOCTYPE svg PUBLIC "-//W3C//DTD SVG 20010904//EN"
 "http://www.w3.org/TR/2001/REC-SVG-20010904/DTD/svg10.dtd">
<svg version="1.0" xmlns="http://www.w3.org/2000/svg"
 width="768.000000pt" height="584.000000pt" viewBox="0 0 768.000000 584.000000"
 preserveAspectRatio="xMidYMid meet">

<g transform="translate(0.000000,584.000000) scale(0.100000,-0.100000)"
fill="#000000" stroke="none">
<path d="M0 2920 l0 -2920 3840 0 3840 0 0 2920 0 2920 -3840 0 -3840 0 0
-2920z m4315 2410 c214 -32 504 -107 540 -141 14 -14 -7 -12 -211 25 -241 44
-468 77 -548 79 -84 2 -106 -14 -157 -116 -50 -99 -149 -342 -149 -366 0 -28
108 -125 230 -206 137 -92 394 -219 540 -268 120 -41 216 -62 350 -77 52 -6
95 -12 97 -14 11 -11 -90 -15 -166 -6 -310 35 -713 211 -983 429 -90 72 -123
119 -113 159 10 41 92 256 131 346 43 98 76 144 118 162 45 19 160 17 321 -6z
m62 -120 c259 -36 461 -83 533 -125 35 -20 12 -19 -112 5 -245 46 -645 109
-701 110 -32 0 -51 -27 -98 -139 l-30 -73 23 -25 c74 -82 379 -243 619 -329
181 -64 135 -63 -61 3 -293 97 -610 279 -610 350 0 30 75 210 98 237 15 16 27
18 109 12 50 -3 153 -15 230 -26z m-47 -91 c294 -44 624 -118 653 -149 15 -14
15 -188 0 -214 -8 -14 -12 1 -17 72 -4 49 -13 97 -19 105 -16 20 -308 90 -627
151 -189 36 -194 36 -215 -18 -9 -24 -15 -52 -13 -62 4 -25 102 -83 338 -201
213 -107 247 -133 82 -62 -205 87 -445 217 -456 245 -6 16 29 130 45 151 10
11 23 13 54 8 22 -3 101 -15 175 -26z m727 -26 c16 -24 19 -73 29 -433 6 -223
9 -407 7 -410 -3 -3 -13 6 -23 20 -39 51 -43 108 -31 441 11 300 9 373 -10
385 -12 7 -11 24 1 24 5 0 18 -12 27 -27z m-927 -311 c292 -182 553 -295 749
-324 100 -15 112 -28 25 -28 -175 0 -574 150 -825 311 -74 48 -179 147 -179
169 0 14 8 10 230 -128z m-542 87 c48 -12 91 -26 96 -30 5 -5 -49 -6 -120 -3
-107 5 -132 3 -149 -9 -20 -16 -20 -16 4 -62 13 -25 51 -74 83 -110 245 -267
923 -592 1407 -674 139 -24 206 -26 296 -10 123 21 175 74 142 144 -22 45 -96
125 -159 172 -27 19 -47 37 -44 40 10 10 88 -40 145 -92 126 -117 133 -214 19
-269 -181 -86 -544 -32 -1006 150 -392 155 -660 312 -822 480 -120 125 -157
216 -107 261 41 38 95 41 215 12z m2 -89 c-8 -5 -25 -10 -37 -10 -13 0 -23 -4
-23 -9 0 -12 155 -159 226 -213 326 -250 813 -456 1249 -528 97 -16 106 -19
50 -15 -379 25 -974 254 -1306 502 -72 54 -236 208 -251 236 -15 29 8 47 61
47 33 0 42 -3 31 -10z m248 -168 c274 -203 518 -325 872 -436 162 -50 170 -59
19 -21 -409 104 -887 353 -1011 528 -27 37 -22 35 120 -71z m-178 -281 c0
-108 26 -168 103 -237 l52 -46 -36 5 -35 5 -1 -61 c-1 -107 -51 -255 -123
-368 -17 -25 -30 -56 -30 -68 0 -62 109 -193 211 -254 172 -102 400 -119 591
-46 84 33 86 36 72 106 -5 26 -13 32 -62 48 -173 53 -304 145 -389 270 -67
100 -156 296 -140 311 3 3 31 -45 63 -107 66 -134 123 -216 192 -281 108 -101
349 -189 526 -192 98 -1 92 -5 110 76 4 15 26 52 51 83 27 33 45 65 45 80 0
48 36 102 77 116 70 23 83 38 77 89 l-5 45 20 -25 c24 -29 36 -64 27 -85 -3
-8 -24 -27 -47 -42 -69 -47 -89 -69 -89 -103 0 -39 -13 -63 -61 -118 -23 -27
-42 -61 -49 -93 -7 -29 -21 -55 -33 -64 -28 -19 -142 -19 -222 0 -33 8 -63 14
-67 15 -4 0 0 -19 9 -42 13 -33 17 -77 17 -188 0 -122 -5 -163 -27 -261 -70
-299 -330 -1010 -359 -981 -6 6 -5 55 2 127 12 111 10 239 -6 477 -7 108 -7
108 -91 108 -42 0 -43 -1 -43 -32 0 -43 -109 -581 -121 -592 -5 -5 -12 -6 -16
-3 -9 9 53 478 77 576 15 65 15 77 3 102 -8 16 -22 66 -31 112 -9 45 -17 83
-18 85 0 1 -27 -11 -59 -28 -31 -16 -65 -30 -75 -30 -11 0 -21 -3 -23 -7 -10
-17 25 -368 59 -606 42 -290 77 -441 128 -552 20 -43 34 -80 32 -82 -7 -8 -55
62 -80 117 -14 30 -36 94 -50 141 -35 122 -103 532 -126 766 -26 251 -32 285
-86 472 -82 284 -102 405 -83 503 10 54 19 70 57 108 61 61 80 108 102 260 11
72 22 135 26 141 3 6 -7 25 -24 42 -74 77 -103 207 -62 275 11 18 25 30 30 27
6 -3 10 -46 10 -94z m-65 -571 c-11 -5 -54 -19 -95 -31 -41 -12 -153 -61 -248
-111 -200 -103 -235 -113 -537 -158 -115 -17 -224 -35 -242 -41 -44 -14 -149
-130 -202 -222 -23 -42 -76 -157 -115 -254 -79 -195 -98 -233 -103 -217 -4 13
84 271 134 391 45 108 138 248 199 302 43 38 95 61 136 61 35 0 406 72 473 91
39 12 130 53 204 92 171 89 223 106 331 106 58 0 79 -3 65 -9z m-304 -188
c-35 -68 -52 -160 -53 -271 0 -203 26 -295 246 -883 180 -480 200 -538 186
-538 -5 0 -20 24 -34 54 -45 94 -383 947 -410 1034 -54 173 -69 332 -41 450
18 75 35 109 76 157 41 46 54 45 30 -3z m-175 -144 c-4 -13 -10 -66 -13 -118
-11 -180 48 -380 237 -805 64 -143 130 -316 130 -338 -1 -37 -187 333 -266
531 -99 246 -137 406 -137 575 0 104 -2 117 -16 111 -44 -17 -116 -35 -206
-49 -55 -9 -103 -19 -108 -24 -4 -4 4 -28 18 -52 59 -103 111 -321 120 -504
l5 -100 -24 150 c-37 238 -78 371 -145 469 -17 25 -31 49 -31 55 0 10 2 11
170 41 63 12 147 34 185 50 87 35 89 35 81 8z m-503 -130 c87 -107 144 -293
167 -541 15 -154 -6 -407 -31 -391 -5 3 -7 58 -3 127 12 240 -21 422 -125 684
-34 84 -61 155 -61 158 0 16 23 0 53 -37z m2018 -5 c45 -41 78 -100 105 -188
28 -89 26 -310 -3 -425 -52 -205 -134 -374 -314 -640 -165 -245 -362 -500
-376 -486 -6 5 39 73 203 306 280 400 399 635 434 865 14 90 14 286 0 350 -19
90 -51 173 -81 214 -36 51 -22 53 32 4z m-1631 -53 c0 -15 9 -80 20 -144 20
-118 55 -231 153 -486 30 -80 62 -170 71 -200 l16 -55 -22 25 c-28 33 -107
201 -153 325 -49 131 -82 262 -102 407 l-16 118 -38 0 c-21 0 -41 -4 -44 -10
-3 -5 3 -27 15 -49 29 -58 59 -191 66 -296 4 -49 4 -88 1 -85 -2 3 -12 54 -22
114 -19 125 -52 231 -89 287 -14 21 -26 43 -26 48 0 10 149 41 163 34 4 -2 7
-17 7 -33z m1903 -91 c84 -49 214 -122 290 -160 154 -78 206 -122 250 -213 33
-68 57 -157 57 -214 0 -62 -15 -44 -34 40 -22 96 -55 167 -106 222 -55 59 -80
74 -243 144 -148 64 -250 121 -312 175 -44 38 -83 97 -65 97 6 0 80 -41 163
-91z m24 -208 c32 -16 96 -42 143 -57 140 -45 195 -121 171 -237 -15 -71 -134
-432 -139 -418 -2 6 22 95 53 198 79 262 82 318 16 377 -16 15 -149 66 -250
97 -11 3 -17 -19 -28 -100 -18 -140 -67 -281 -167 -486 -72 -147 -269 -479
-329 -555 l-19 -25 7 25 c14 48 105 227 224 438 188 336 253 511 253 684 0 48
2 88 4 88 2 0 29 -13 61 -29z m-1068 -217 c13 -32 21 -78 21 -112 -1 -46 -55
-439 -59 -422 -1 3 -8 64 -16 135 -16 144 -20 325 -6 325 4 0 14 -20 21 -45
17 -62 26 -63 34 -6 5 35 1 66 -14 112 -22 72 -24 83 -11 74 5 -3 19 -30 30
-61z m1173 46 c39 -11 75 -25 80 -32 20 -32 -9 -172 -71 -348 -41 -117 -38
-88 9 95 22 85 40 173 40 195 0 37 -2 40 -37 49 -60 17 -73 14 -73 -14 0 -52
-33 -182 -72 -285 -64 -169 -247 -514 -264 -497 -9 9 41 130 140 334 118 245
154 344 163 450 3 40 8 73 10 73 2 0 36 -9 75 -20z m-917 -1751 l40 -15 -2
-54 c-3 -79 -10 -100 -33 -100 -16 0 -20 7 -20 35 0 64 -67 105 -172 105 -155
-1 -248 -116 -236 -289 15 -212 180 -318 388 -251 39 13 73 20 76 18 2 -3 0
-16 -5 -30 -17 -44 -87 -63 -231 -63 -117 0 -129 2 -188 29 -125 58 -187 162
-187 311 1 156 80 259 240 311 53 18 275 13 330 -7z m803 6 c69 -21 129 -69
166 -135 27 -48 31 -66 34 -151 7 -173 -41 -270 -165 -331 -66 -32 -71 -33
-193 -33 -144 0 -189 14 -255 80 -63 64 -80 113 -80 240 0 94 3 117 23 160 39
85 105 142 197 171 57 18 211 17 273 -1z m1786 -11 c114 -38 173 -143 164
-295 -8 -135 -79 -238 -206 -297 -55 -26 -64 -27 -264 -30 -212 -4 -232 0
-185 33 22 15 22 20 25 248 2 127 -1 250 -5 272 -8 34 -13 41 -38 45 -17 3
-31 12 -33 22 -3 15 12 16 148 16 84 0 155 4 158 7 11 12 183 -4 236 -21z
m-5789 -17 c38 -92 191 -404 198 -406 8 -2 144 267 195 386 l22 52 115 0 c93
0 115 -3 115 -14 0 -8 -12 -17 -27 -21 -16 -3 -34 -7 -41 -10 -10 -3 -12 -63
-10 -276 l3 -273 35 -5 c23 -3 36 -11 38 -23 3 -16 -9 -17 -148 -17 -139 0
-151 1 -148 17 2 10 14 19 28 21 47 6 50 21 50 239 0 112 -4 203 -8 203 -5 0
-61 -109 -125 -242 -96 -202 -119 -243 -136 -243 -17 0 -32 24 -80 125 -32 69
-85 181 -119 250 l-61 125 2 -224 2 -224 34 -12 c19 -6 37 -17 39 -23 3 -9
-28 -12 -112 -12 -73 0 -116 4 -116 10 0 11 7 14 53 24 l27 6 -2 278 -3 277
-35 5 c-21 3 -36 11 -38 21 -2 14 13 16 118 17 l122 1 13 -32z m1361 18 c102
-43 95 -192 -12 -260 -24 -15 -44 -32 -44 -37 0 -5 41 -69 90 -144 58 -85 100
-138 115 -144 14 -5 25 -16 25 -23 0 -11 -22 -16 -87 -20 -74 -5 -91 -3 -104
11 -30 30 -208 315 -203 324 3 4 14 8 25 8 37 0 89 29 109 62 29 46 23 120
-13 156 -21 20 -38 27 -87 30 l-60 4 2 -273 3 -274 35 -5 c23 -3 36 -11 38
-22 3 -17 -9 -18 -148 -18 -139 0 -151 1 -148 17 2 10 14 20 28 21 50 7 50 8
50 282 0 274 0 275 -50 282 -14 1 -26 10 -28 19 -3 15 20 16 214 17 165 1 225
-2 250 -13z m3412 -4 c-2 -10 -16 -18 -38 -21 l-35 -5 -3 -273 -2 -273 112 3
113 3 16 50 c10 31 22 51 33 53 15 3 17 -5 14 -75 l-3 -78 -237 -3 c-137 -1
-238 1 -238 7 0 5 11 16 25 25 l25 17 -2 272 -3 272 -35 5 c-22 3 -36 11 -38
21 -3 15 13 17 148 17 135 0 151 -2 148 -17z m-2872 -504 c55 -48 25 -127 -47
-127 -29 0 -42 6 -58 26 -28 36 -26 60 8 95 36 35 61 37 97 6z"/>
<path d="M3586 3384 c3 -16 29 -110 56 -209 27 -99 56 -213 64 -254 8 -41 16
-76 18 -78 2 -2 21 11 44 29 22 18 77 62 122 98 45 36 110 94 143 130 l61 65
-44 8 c-190 34 -306 86 -405 179 -62 57 -66 59 -59 32z"/>
<path d="M4433 3249 c-49 -31 -135 -58 -220 -70 -43 -7 -80 -13 -82 -15 -11
-10 170 -316 204 -344 10 -8 25 -3 58 20 l45 30 21 112 c20 109 29 289 14 287
-5 0 -22 -10 -40 -20z"/>
<path d="M4090 3081 c0 -5 -37 -45 -81 -90 -77 -77 -81 -82 -71 -109 6 -15 20
-63 31 -106 11 -43 25 -82 32 -87 7 -4 36 -10 66 -14 66 -8 71 -4 142 102 l51
74 -49 72 c-26 40 -60 93 -75 120 -26 43 -46 60 -46 38z"/>
<path d="M4247 2766 c-16 -30 -44 -72 -61 -93 -33 -37 -33 -38 -18 -73 11 -24
17 -88 21 -210 l6 -175 77 195 c87 218 150 400 140 400 -4 0 -18 -9 -32 -20
-33 -26 -42 -25 -70 5 -13 14 -26 25 -29 25 -3 0 -19 -25 -34 -54z m19 -95
c-14 -28 -26 -57 -26 -65 0 -30 19 -25 42 11 22 37 23 37 26 13 2 -14 -15 -63
-37 -110 -33 -70 -41 -80 -41 -55 0 17 -3 59 -6 95 -5 60 -3 69 26 118 39 67
50 62 16 -7z"/>
<path d="M4675 967 c-81 -46 -109 -121 -103 -272 8 -198 86 -289 234 -272 89
10 143 71 164 187 29 159 -26 317 -127 369 -37 19 -124 13 -168 -12z"/>
<path d="M6378 974 c-5 -4 -8 -125 -8 -269 l0 -262 32 -7 c67 -13 183 12 236
51 54 41 75 94 80 205 7 152 -27 223 -123 264 -42 18 -205 32 -217 18z"/>
</g>
</svg>
