<?xml version="1.0" standalone="no"?>
<!DOCTYPE svg PUBLIC "-//W3C//DTD SVG 20010904//EN"
 "http://www.w3.org/TR/2001/REC-SVG-20010904/DTD/svg10.dtd">
<svg version="1.0" xmlns="http://www.w3.org/2000/svg"
 width="770.000000pt" height="554.000000pt" viewBox="0 0 770.000000 554.000000"
 preserveAspectRatio="xMidYMid meet">

<g transform="translate(0.000000,554.000000) scale(0.100000,-0.100000)"
fill="#000000" stroke="none">
<path d="M3140 5189 c-69 -21 -253 -75 -410 -120 -157 -44 -296 -84 -310 -88
l-25 -8 -3 -1576 -2 -1577 310 0 310 0 0 1613 0 1613 134 43 133 43 164 -52
c90 -28 185 -58 210 -66 l45 -14 30 -92 c16 -51 39 -104 52 -119 l22 -27 -24
-29 c-21 -26 -34 -88 -125 -653 -56 -344 -111 -675 -121 -737 -31 -173 -41
-151 131 -283 82 -63 157 -121 168 -128 16 -11 36 2 180 114 90 70 165 133
167 139 3 7 -20 169 -51 361 -31 192 -67 414 -80 494 -107 661 -107 664 -132
694 -24 28 -24 29 -5 50 10 11 34 64 52 116 18 52 34 96 36 98 1 2 95 32 209
68 l208 66 134 -43 133 -43 0 -1613 0 -1613 310 0 310 0 0 1580 c0 1301 -2
1580 -13 1580 -20 0 -382 102 -644 181 l-232 71 -274 -91 c-151 -50 -282 -91
-292 -91 -10 0 -140 41 -289 90 -150 50 -276 90 -281 89 -6 0 -66 -18 -135
-40z"/>
<path d="M965 1370 c-176 -26 -292 -96 -347 -207 -29 -59 -32 -76 -36 -180
l-5 -114 59 27 c33 14 73 32 91 40 l31 14 -19 50 c-10 28 -19 75 -19 104 0 88
42 123 188 155 32 7 42 6 42 -4 0 -7 -29 -73 -63 -146 -113 -239 -337 -725
-337 -733 0 -4 27 -6 61 -4 l60 3 133 288 c74 158 137 291 140 294 3 4 6 -5 6
-18 0 -25 -45 -449 -55 -526 l-6 -43 85 0 85 0 167 295 c93 162 171 295 175
295 4 0 3 -19 -3 -42 -5 -24 -34 -152 -63 -285 -30 -133 -55 -247 -55 -253 0
-6 34 -10 90 -10 85 0 90 1 95 22 16 70 195 964 195 975 0 10 -21 13 -83 13
l-82 0 -180 -311 c-215 -371 -193 -334 -199 -329 -2 3 13 147 35 320 21 173
39 316 39 318 0 5 -178 -1 -225 -8z"/>
<path d="M4329 1357 c-130 -47 -233 -145 -298 -281 -57 -118 -75 -200 -76
-336 0 -106 2 -120 29 -178 63 -136 207 -212 404 -212 174 0 323 70 413 194
53 72 7 78 -61 7 -72 -75 -117 -94 -232 -99 -202 -9 -318 71 -349 238 -41 229
165 570 344 570 42 0 77 -28 77 -60 0 -12 -9 -38 -20 -60 -11 -22 -20 -44 -20
-49 0 -14 91 -161 100 -161 4 0 20 28 36 63 25 54 29 74 29 154 0 85 -2 94
-30 134 -65 92 -212 124 -346 76z"/>
<path d="M6050 1307 c0 -1 -34 -173 -75 -382 -41 -208 -75 -395 -75 -415 0
-47 38 -122 70 -137 36 -18 109 -15 155 6 79 37 185 153 185 203 0 33 -30 19
-59 -28 -39 -63 -105 -114 -146 -114 -20 0 -35 6 -39 15 -3 9 33 203 79 431
47 229 85 418 85 420 0 2 -40 4 -90 4 -49 0 -90 -1 -90 -3z"/>
<path d="M7052 1263 c-6 -27 -21 -96 -33 -155 -12 -60 -26 -108 -31 -108 -4 0
-8 4 -8 9 0 17 -69 41 -119 41 -168 0 -322 -155 -367 -370 -42 -200 37 -330
194 -318 71 5 125 31 179 84 l41 42 16 -43 c26 -66 47 -80 125 -80 77 0 118
17 186 77 40 35 105 128 105 151 0 4 -11 7 -25 7 -14 0 -25 -4 -25 -8 0 -5
-14 -29 -30 -54 -58 -88 -161 -131 -176 -73 -3 14 -4 35 -1 48 4 12 38 186 77
387 39 201 74 375 77 388 5 22 3 22 -85 22 l-90 0 -10 -47z m-97 -299 c14 -15
25 -32 25 -38 0 -6 -15 -87 -33 -179 -31 -158 -35 -170 -71 -213 -69 -83 -149
-110 -180 -61 -62 94 9 390 116 481 54 46 106 50 143 10z"/>
<path d="M2292 1029 c-23 -12 -60 -41 -81 -65 -21 -24 -41 -44 -44 -44 -3 0
-1 17 4 38 19 83 20 82 -80 82 l-88 0 -62 -312 c-34 -172 -65 -323 -68 -335
-5 -23 -4 -23 89 -23 l94 0 38 195 c30 152 45 205 66 238 33 52 101 114 135
123 27 7 79 2 106 -10 18 -8 133 79 124 94 -9 15 -98 40 -144 40 -27 0 -64 -9
-89 -21z"/>
<path d="M5245 1036 c-171 -54 -295 -226 -295 -409 0 -89 15 -137 56 -186 50
-57 121 -84 209 -79 86 6 140 32 210 102 56 56 98 135 118 220 11 50 16 57 72
94 76 51 107 83 96 101 -7 10 -19 7 -59 -13 -75 -38 -85 -35 -99 25 -25 103
-100 160 -209 158 -32 0 -77 -6 -99 -13z m97 -93 c28 -30 53 -82 43 -92 -3 -3
-15 0 -26 7 -25 16 -38 7 -70 -45 -21 -33 -21 -35 -3 -48 11 -8 39 -22 63 -32
43 -17 43 -17 37 -58 -9 -69 -47 -158 -82 -192 -60 -61 -138 -36 -163 53 -33
117 13 339 83 409 35 35 84 34 118 -2z"/>
<path d="M2840 573 c-79 -22 -113 -96 -73 -163 46 -78 164 -63 193 24 12 38
-3 89 -32 114 -20 16 -69 30 -88 25z"/>
</g>
</svg>
