<?xml version="1.0" standalone="no"?>
<!DOCTYPE svg PUBLIC "-//W3C//DTD SVG 20010904//EN"
 "http://www.w3.org/TR/2001/REC-SVG-20010904/DTD/svg10.dtd">
<svg version="1.0" xmlns="http://www.w3.org/2000/svg"
 width="753.000000pt" height="588.000000pt" viewBox="0 0 753.000000 588.000000"
 preserveAspectRatio="xMidYMid meet">

<g transform="translate(0.000000,588.000000) scale(0.100000,-0.100000)"
fill="#000000" stroke="none">
<path d="M3815 5352 c-60 -38 -78 -73 -180 -337 -67 -174 -66 -175 28 -260
246 -223 756 -437 1032 -434 104 1 107 15 5 22 -180 13 -391 76 -605 181 -212
105 -442 269 -461 329 -7 23 88 268 144 372 52 96 71 102 247 80 201 -25 234
-30 473 -75 62 -12 121 -20 130 -18 21 4 -135 61 -238 87 -131 33 -321 62
-435 68 -97 4 -114 2 -140 -15z"/>
<path d="M3850 5238 c-33 -54 -81 -178 -82 -210 -1 -31 14 -48 97 -107 154
-110 518 -262 678 -285 61 -8 34 10 -60 39 -208 65 -434 170 -583 273 -56 38
-86 65 -88 80 -2 12 15 60 37 107 37 79 42 85 70 85 63 0 580 -81 735 -116 38
-8 71 -12 74 -10 9 10 -122 65 -203 86 -157 40 -493 90 -608 90 -43 0 -49 -3
-67 -32z"/>
<path d="M3915 5170 c-10 -16 -45 -122 -45 -137 0 -7 27 -31 60 -52 123 -79
495 -248 523 -238 10 4 -72 46 -218 112 -67 31 -281 151 -306 172 -16 13 -16
18 -1 64 l16 51 56 -7 c122 -15 679 -136 708 -154 9 -6 17 -43 22 -110 4 -56
10 -104 13 -107 8 -8 27 109 27 171 0 51 -4 65 -22 82 -31 29 -217 73 -515
123 -250 41 -308 47 -318 30z"/>
<path d="M4796 5126 c14 -22 15 -67 12 -378 l-3 -353 24 -33 c13 -18 24 -32
25 -30 2 2 0 174 -4 384 -5 338 -8 384 -23 408 -10 14 -24 26 -32 26 -14 0
-13 -3 1 -24z"/>
<path d="M3740 4940 c60 -112 455 -325 750 -405 110 -29 250 -44 250 -26 0 6
-9 11 -20 11 -34 0 -165 29 -242 54 -170 55 -293 115 -518 254 -198 123 -214
132 -222 132 -5 0 -4 -9 2 -20z"/>
<path d="M3264 4924 c-17 -8 -37 -26 -44 -39 -39 -72 110 -251 331 -398 248
-164 693 -350 1019 -424 153 -35 375 -39 458 -9 132 49 140 139 23 256 -44 44
-137 107 -146 98 -2 -2 23 -26 57 -53 105 -85 161 -179 134 -224 -16 -25 -92
-53 -165 -60 -147 -15 -331 15 -561 90 -498 163 -934 420 -1072 634 l-39 60
23 19 c21 17 35 18 148 12 145 -7 143 3 -7 33 -120 25 -119 25 -159 5z"/>
<path d="M3363 4843 c-59 -23 85 -176 307 -325 117 -79 394 -218 540 -271 230
-85 506 -147 653 -147 39 0 68 2 66 4 -3 3 -62 12 -131 20 -404 50 -900 259
-1222 514 -81 64 -186 161 -186 172 0 4 24 11 53 15 44 7 48 9 27 15 -29 9
-89 11 -107 3z"/>
<path d="M3539 4762 c17 -33 145 -146 219 -196 230 -152 582 -295 872 -351 78
-16 8 14 -129 55 -318 94 -581 226 -848 426 -61 46 -114 84 -118 84 -3 0 -1
-8 4 -18z"/>
<path d="M3465 4466 c-31 -74 -11 -163 56 -247 19 -24 29 -46 25 -56 -4 -8
-13 -62 -21 -118 -20 -141 -39 -192 -90 -240 -91 -85 -88 -205 14 -560 55
-193 65 -245 86 -470 20 -205 87 -604 120 -719 27 -92 70 -184 104 -223 33
-39 31 -26 -10 62 -22 47 -51 128 -64 179 -30 119 -92 549 -105 731 -13 186
-13 185 8 185 9 0 43 13 74 29 l56 29 12 -67 c6 -36 20 -85 30 -108 16 -37 17
-47 5 -85 -7 -24 -18 -86 -25 -138 -6 -52 -20 -153 -31 -225 -21 -146 -25
-225 -9 -209 12 12 108 471 114 542 2 26 6 48 10 50 3 1 30 2 60 2 l53 0 7
-102 c3 -57 9 -149 13 -205 3 -58 0 -156 -7 -228 -19 -197 -4 -186 98 73 146
370 241 683 262 867 12 105 2 244 -21 286 -6 11 -9 22 -7 24 2 1 44 -6 93 -16
50 -10 104 -19 121 -19 45 0 80 32 97 89 8 27 32 71 54 98 30 35 42 60 46 93
4 27 12 49 23 55 99 58 122 101 84 156 -27 37 -36 31 -21 -12 14 -40 7 -49
-63 -82 -46 -22 -56 -32 -71 -71 -9 -24 -15 -48 -12 -53 3 -5 -15 -33 -39 -62
-29 -35 -46 -67 -50 -93 -9 -53 -27 -69 -72 -63 -20 2 -64 7 -97 10 -72 7
-246 64 -326 106 -119 64 -187 145 -285 339 -32 62 -59 109 -61 103 -6 -18 54
-163 101 -243 89 -152 200 -241 373 -297 l82 -27 7 -45 c8 -52 1 -60 -83 -91
-118 -44 -282 -50 -404 -14 -122 35 -256 134 -310 228 -28 50 -38 100 -20 110
16 11 67 110 101 196 26 69 33 101 34 166 l1 81 23 -15 c42 -27 35 -3 -13 45
-71 72 -88 112 -89 212 -1 95 -16 116 -41 57z m125 -1047 c63 -39 193 -83 273
-94 41 -5 46 -8 37 -24 -14 -27 -150 -152 -235 -216 -41 -30 -77 -60 -80 -65
-13 -22 -22 -7 -34 56 -6 37 -34 146 -60 243 -73 265 -71 244 -12 186 28 -28
78 -66 111 -86z m671 -268 c-22 -112 -26 -120 -77 -150 l-34 -21 -50 67 c-43
60 -140 229 -148 260 -2 7 18 14 55 18 78 9 179 39 228 69 l40 25 3 -83 c2
-52 -5 -119 -17 -185z m-244 -49 l53 -83 -26 -42 c-15 -23 -42 -61 -61 -84
-38 -47 -65 -53 -132 -30 -31 11 -36 18 -48 67 -8 30 -20 75 -28 100 l-14 45
82 86 82 86 19 -31 c11 -17 44 -68 73 -114z m103 -137 c29 -31 31 -31 69 1 17
14 31 23 31 20 0 -26 -197 -556 -213 -573 -1 -1 0 43 1 98 4 98 -12 260 -27
288 -6 9 3 29 27 60 19 25 44 65 55 89 12 23 24 42 27 42 4 0 17 -11 30 -25z"/>
<path d="M4088 2903 c-8 -10 -25 -35 -37 -56 -22 -35 -23 -45 -16 -135 l8 -97
43 89 c42 85 55 136 35 136 -5 0 -20 -17 -33 -37 -33 -54 -35 -21 -3 51 27 61
28 78 3 49z"/>
<path d="M3280 3874 c-30 -7 -127 -50 -215 -94 -173 -87 -199 -95 -490 -145
-82 -14 -167 -30 -188 -36 -76 -20 -172 -135 -247 -294 -73 -155 -187 -502
-130 -394 7 12 45 102 85 201 40 98 91 209 114 247 47 80 122 166 162 187 16
8 120 28 231 44 327 48 340 52 517 149 105 58 206 100 289 121 23 6 42 15 42
20 0 15 -107 11 -170 -6z"/>
<path d="M3138 3703 c-60 -62 -81 -122 -86 -243 -8 -192 10 -254 235 -820 267
-671 321 -738 82 -101 -78 207 -159 427 -180 489 -94 273 -105 497 -33 660 12
28 22 52 20 52 -1 0 -18 -17 -38 -37z"/>
<path d="M2935 3565 c-27 -13 -120 -38 -205 -55 -85 -17 -156 -32 -157 -34 -1
-1 12 -24 31 -52 72 -108 121 -274 147 -494 14 -126 28 -161 29 -73 0 162 -51
411 -110 527 -17 32 -30 62 -30 66 0 4 42 13 93 20 50 7 119 21 152 31 33 10
61 19 61 19 1 0 -1 -31 -4 -69 -12 -174 57 -425 208 -752 71 -154 179 -354
187 -346 9 9 -49 164 -139 372 -187 432 -231 600 -204 783 8 56 9 82 1 81 -5
0 -32 -11 -60 -24z"/>
<path d="M2480 3465 c0 -10 25 -80 54 -154 93 -231 123 -395 113 -619 -3 -67
-1 -124 3 -127 17 -10 30 102 31 251 0 277 -74 548 -175 643 -23 22 -26 23
-26 6z"/>
<path d="M4370 3461 c0 -6 5 -13 10 -16 17 -11 58 -98 76 -166 24 -84 25 -331
1 -434 -48 -215 -157 -415 -462 -850 -62 -88 -118 -171 -125 -185 -29 -58 56
40 179 205 255 342 376 549 440 747 42 134 54 223 48 353 -8 154 -41 249 -112
320 -35 35 -55 44 -55 26z"/>
<path d="M2783 3406 c-28 -6 -54 -14 -58 -17 -3 -4 7 -31 24 -61 44 -78 59
-128 82 -268 11 -69 23 -127 26 -130 3 -3 3 47 0 110 -7 122 -22 195 -58 272
-12 27 -21 50 -18 52 2 2 18 6 36 9 32 6 32 6 38 -41 30 -222 79 -399 162
-587 46 -105 102 -205 114 -205 13 0 -27 128 -86 280 -32 80 -70 186 -86 235
-28 85 -69 288 -69 341 0 28 -19 30 -107 10z"/>
<path d="M4525 3363 c48 -79 138 -134 446 -276 42 -19 95 -51 117 -72 51 -46
96 -133 117 -230 18 -81 35 -98 35 -37 0 97 -64 246 -131 307 -21 19 -98 64
-170 100 -72 37 -194 104 -272 151 -77 46 -145 84 -150 84 -5 0 -2 -12 8 -27z"/>
<path d="M4633 3096 c15 -150 -49 -347 -211 -641 -27 -49 -79 -143 -115 -208
-138 -244 -175 -365 -60 -192 171 258 322 542 377 710 29 89 56 219 56 271 l0
33 43 -18 c23 -10 74 -27 112 -39 85 -25 124 -61 132 -119 6 -43 -13 -127 -71
-311 -37 -115 -56 -211 -38 -182 17 26 113 312 132 394 36 151 -2 212 -166
264 -54 17 -121 45 -148 62 l-49 31 6 -55z"/>
<path d="M3650 2963 c0 -5 9 -37 20 -72 15 -47 19 -77 14 -110 l-7 -45 -12 40
c-26 90 -44 76 -44 -36 0 -96 35 -380 42 -350 14 52 57 363 57 410 0 49 -44
170 -61 170 -5 0 -9 -3 -9 -7z"/>
<path d="M4715 2902 c-11 -106 -49 -211 -160 -442 -88 -182 -135 -293 -135
-316 0 -14 24 13 62 68 55 81 167 309 212 430 20 53 42 133 50 178 8 45 16 84
19 87 11 10 78 -8 84 -22 7 -21 -13 -127 -47 -247 -30 -105 -39 -168 -20 -138
6 8 29 74 52 145 33 102 42 146 42 204 l1 74 -50 17 c-108 37 -102 39 -110
-38z"/>
<path d="M3631 1286 c-92 -33 -163 -141 -185 -282 -8 -56 -16 -78 -30 -86 -18
-10 -18 -11 1 -27 14 -11 24 -37 31 -83 37 -235 209 -354 386 -269 65 32 145
146 110 158 -6 2 -28 -22 -49 -52 -43 -63 -77 -85 -131 -85 -54 0 -106 58
-134 147 -59 191 -20 466 74 524 70 43 132 12 178 -88 17 -37 34 -63 41 -60
16 5 17 199 1 204 -7 2 -14 -8 -18 -22 -8 -32 -21 -32 -91 5 -62 33 -123 38
-184 16z"/>
<path d="M4459 1286 c-85 -30 -158 -124 -183 -235 -9 -39 -16 -78 -16 -89 0
-10 -9 -27 -21 -38 -19 -17 -19 -19 -3 -31 11 -8 22 -40 30 -90 38 -219 184
-334 352 -279 100 34 180 156 198 304 5 38 12 56 27 64 l20 10 -20 17 c-14 10
-23 33 -27 66 -30 226 -190 361 -357 301z m112 -46 c95 -51 120 -471 37 -622
-26 -47 -67 -70 -96 -52 -94 58 -125 433 -50 606 30 69 65 91 109 68z"/>
<path d="M676 1281 c-3 -5 5 -16 19 -25 25 -16 25 -18 25 -165 0 -135 -2 -149
-20 -166 l-20 -18 20 -19 c18 -17 20 -31 20 -168 0 -148 0 -150 -25 -166 -14
-9 -22 -20 -19 -25 7 -12 164 -12 164 0 0 5 -11 16 -25 25 l-25 16 0 182 c0
100 3 178 8 174 4 -4 27 -96 52 -204 l46 -197 76 -3 c66 -2 77 0 81 15 3 10
25 102 48 206 23 103 46 187 51 187 4 0 8 -79 8 -175 0 -175 0 -176 -25 -199
-14 -13 -25 -26 -25 -30 0 -3 54 -6 120 -6 66 0 120 4 120 9 0 5 -10 15 -22
24 -22 14 -23 20 -23 167 0 133 2 153 18 164 9 7 17 17 17 21 0 4 -8 14 -17
21 -16 11 -18 31 -18 164 0 147 1 153 23 167 12 9 22 19 22 24 0 5 -44 9 -97
9 l-98 0 -64 -283 c-65 -283 -74 -317 -83 -301 -3 5 -33 133 -68 284 -34 151
-63 281 -66 288 -4 14 -189 18 -198 3z"/>
<path d="M1630 1284 c0 -3 11 -17 25 -30 24 -22 25 -27 25 -162 0 -125 -2
-142 -20 -165 l-21 -26 21 -21 c18 -18 20 -32 20 -160 0 -137 -1 -142 -25
-164 -14 -13 -25 -26 -25 -30 0 -3 54 -6 120 -6 66 0 120 4 120 9 0 5 -10 15
-22 23 -22 15 -23 22 -23 139 l0 124 67 3 c61 3 71 0 92 -21 14 -14 27 -42 31
-63 24 -157 40 -186 117 -209 66 -19 104 -19 112 0 4 11 -5 22 -29 36 -39 23
-41 29 -50 119 -9 84 -25 122 -64 149 l-32 23 45 39 c28 25 51 56 62 87 9 26
27 55 38 64 l21 17 -22 16 c-12 8 -24 28 -28 44 -11 53 -60 107 -122 137 -57
28 -63 29 -245 32 -104 2 -188 0 -188 -4z m320 -62 c74 -37 105 -174 60 -268
-28 -57 -61 -77 -129 -78 l-56 -1 -2 170 c-2 94 -1 176 2 183 7 18 84 15 125
-6z"/>
<path d="M5136 1281 c-3 -5 5 -16 19 -25 25 -16 25 -18 25 -165 0 -135 -2
-149 -20 -166 l-20 -18 20 -19 c18 -17 20 -31 20 -168 0 -148 0 -150 -25 -166
-14 -9 -22 -20 -19 -25 3 -5 117 -9 254 -9 l250 0 6 28 c3 15 10 43 15 62 13
51 11 87 -6 93 -15 6 -55 -36 -55 -59 0 -7 -14 -26 -31 -43 -30 -31 -32 -31
-135 -31 l-104 0 0 150 c0 137 2 151 20 168 l20 19 -20 18 c-18 17 -20 31 -20
166 0 147 0 149 25 165 14 9 22 20 19 25 -3 5 -56 9 -119 9 -63 0 -116 -4
-119 -9z"/>
<path d="M5950 1280 c0 -5 9 -15 20 -22 19 -12 20 -24 20 -169 0 -151 -1 -157
-22 -171 l-22 -15 22 -12 c21 -11 22 -17 22 -171 0 -149 -1 -160 -20 -170 -45
-24 -16 -30 138 -30 183 0 227 10 287 68 47 46 90 136 105 222 8 45 18 70 32
81 l21 17 -20 11 c-16 8 -24 28 -33 80 -23 136 -97 244 -189 276 -52 18 -361
22 -361 5z m320 -78 c57 -57 74 -125 75 -297 0 -172 -17 -239 -75 -297 -33
-33 -44 -38 -84 -38 l-46 0 0 328 c0 181 3 332 7 335 3 4 24 7 46 7 32 0 46
-7 77 -38z"/>
<path d="M2545 645 c-73 -72 28 -178 109 -114 55 43 18 139 -54 139 -19 0 -40
-9 -55 -25z"/>
</g>
</svg>
