<?xml version="1.0" standalone="no"?>
<!DOCTYPE svg PUBLIC "-//W3C//DTD SVG 20010904//EN"
 "http://www.w3.org/TR/2001/REC-SVG-20010904/DTD/svg10.dtd">
<svg version="1.0" xmlns="http://www.w3.org/2000/svg"
 width="884.000000pt" height="670.000000pt" viewBox="0 0 884.000000 670.000000"
 preserveAspectRatio="xMidYMid meet">

<g transform="translate(0.000000,670.000000) scale(0.100000,-0.100000)"
fill="#000000" stroke="none">
<path d="M4130 5775 c-123 -16 -271 -50 -309 -69 -69 -36 -76 -93 -36 -284 14
-65 34 -166 44 -224 24 -131 61 -207 144 -289 66 -66 184 -129 275 -148 85
-18 236 -13 331 9 46 11 86 19 88 17 7 -8 -80 -79 -114 -94 -43 -17 -37 -25
25 -33 l47 -6 -67 -34 c-38 -19 -68 -38 -68 -42 0 -14 71 -20 121 -11 46 10
49 9 34 -7 -30 -33 -125 -72 -200 -83 -107 -16 -217 2 -309 48 -82 42 -137 82
-255 182 -105 90 -186 133 -252 133 -63 0 -90 -11 -144 -61 -103 -95 -92 -246
30 -411 45 -61 169 -160 254 -203 84 -42 242 -90 346 -106 118 -17 489 -14
600 6 204 36 389 124 509 241 174 172 192 407 37 505 -80 51 -164 34 -300 -62
-36 -25 -66 -39 -75 -36 -24 10 -20 73 14 200 40 151 140 639 140 682 0 82
-40 114 -180 145 -221 50 -516 64 -730 35z m-45 -74 c-46 -11 -81 -38 -99 -76
-50 -104 16 -143 249 -146 75 0 198 -13 173 -18 -52 -8 -289 -76 -306 -88 -13
-8 -28 -28 -34 -45 l-11 -31 -23 44 c-18 36 -24 41 -29 26 -10 -25 2 -158 21
-232 9 -33 31 -89 50 -125 19 -35 34 -68 34 -72 0 -12 -51 11 -87 38 -59 45
-117 209 -153 431 -25 153 -13 215 50 262 42 31 73 39 140 39 44 0 49 -1 25
-7z m-385 -966 c24 -13 50 -42 50 -57 0 -2 -15 -2 -34 0 -66 8 -126 -48 -126
-116 0 -114 195 -299 392 -373 34 -12 57 -24 51 -26 -20 -7 -165 46 -278 101
-88 43 -121 66 -166 112 -91 97 -123 218 -79 304 11 22 32 46 48 54 35 20 105
20 142 1z"/>
<path d="M2907 4156 c-126 -45 -178 -185 -116 -307 38 -77 112 -114 210 -107
112 8 189 93 189 210 0 153 -141 254 -283 204z m48 -156 c0 -18 -6 -26 -23
-28 -13 -2 -25 3 -28 12 -10 26 4 48 28 44 17 -2 23 -10 23 -28z m94 16 c15
-18 3 -46 -20 -46 -22 0 -34 22 -25 45 7 19 30 19 45 1z m-94 -106 c0 -18 -6
-26 -23 -28 -27 -4 -40 22 -22 44 19 22 45 13 45 -16z m95 15 c17 -20 5 -45
-20 -45 -23 0 -35 22 -26 45 7 19 30 19 46 0z"/>
<path d="M5720 4145 c-145 -65 -176 -258 -57 -362 107 -93 262 -62 330 67 25
47 28 63 24 108 -7 68 -42 129 -95 166 -52 37 -145 46 -202 21z m64 -141 c7
-19 -10 -44 -29 -44 -19 0 -36 25 -29 44 3 9 16 16 29 16 13 0 26 -7 29 -16z
m94 -8 c5 -25 -12 -39 -37 -31 -20 6 -28 34 -14 49 13 13 48 1 51 -18z m-99
-80 c16 -20 3 -46 -24 -46 -13 0 -26 7 -29 16 -7 19 10 44 29 44 7 0 18 -6 24
-14z m96 -16 c0 -18 -6 -26 -23 -28 -13 -2 -25 3 -28 12 -10 26 4 48 28 44 17
-2 23 -10 23 -28z"/>
<path d="M1076 3153 c-3 -16 -26 -178 -51 -362 -29 -212 -51 -343 -60 -358 -8
-12 -30 -27 -48 -32 -24 -7 -5 -9 83 -9 73 -1 107 2 94 8 -12 4 -24 15 -27 22
-6 16 29 317 38 326 6 6 -1 15 157 -205 68 -95 126 -173 131 -173 4 0 10 14
14 32 9 46 223 366 233 347 4 -8 15 -83 26 -168 l18 -154 -23 -18 c-23 -19
-21 -19 160 -18 101 1 174 4 163 6 -12 2 -31 14 -43 27 -19 20 -28 69 -72 382
-28 197 -54 362 -58 366 -3 4 -82 -106 -174 -243 -92 -137 -171 -249 -176
-249 -4 0 -89 113 -190 250 -100 138 -184 250 -186 250 -2 0 -6 -12 -9 -27z"/>
<path d="M4335 3170 c-218 -47 -335 -183 -335 -391 0 -244 152 -384 440 -405
136 -10 236 18 316 88 l36 32 -6 76 c-4 41 -11 91 -15 110 -7 34 -7 34 -24
-34 -42 -164 -103 -216 -255 -216 -76 0 -125 22 -175 80 -54 63 -72 133 -72
275 1 143 22 209 86 274 49 49 95 66 179 65 105 -1 176 -49 222 -149 l22 -50
8 99 c5 55 5 103 1 107 -5 4 -33 15 -63 24 -63 20 -300 29 -365 15z"/>
<path d="M5311 3164 c-128 -34 -221 -108 -269 -212 -34 -74 -42 -212 -18 -298
36 -125 134 -220 267 -260 96 -28 282 -26 369 4 189 66 278 203 268 407 -10
190 -111 310 -303 360 -74 19 -241 19 -314 -1z m249 -59 c41 -21 87 -87 108
-154 12 -41 17 -89 16 -181 -1 -134 -14 -190 -60 -260 -71 -107 -237 -107
-307 -1 -97 146 -81 468 27 570 53 50 147 61 216 26z"/>
<path d="M2186 3161 c-4 -6 -1 -11 8 -11 8 0 22 -10 30 -22 14 -19 16 -70 16
-349 0 -180 -3 -335 -6 -344 -4 -10 -21 -23 -38 -31 -27 -12 -9 -13 159 -13
168 0 186 1 159 13 -17 8 -34 21 -38 31 -3 9 -6 165 -6 346 l0 329 35 0 c94 0
139 -52 139 -160 0 -103 -45 -170 -114 -170 -21 0 -21 -1 4 -30 14 -17 30 -50
36 -73 38 -155 74 -215 155 -256 45 -24 61 -26 195 -28 107 -2 137 0 113 7
-40 13 -95 75 -161 182 -52 85 -88 126 -132 148 l-25 13 30 10 c84 27 134 101
135 199 0 101 -35 153 -129 190 -51 20 -78 22 -307 26 -176 3 -254 1 -258 -7z"/>
<path d="M6140 3160 c0 -5 6 -10 13 -10 8 0 21 -8 30 -18 15 -17 17 -56 17
-349 0 -182 -3 -339 -6 -348 -4 -10 -21 -23 -38 -31 -27 -11 12 -13 290 -14
l321 0 16 100 c23 133 21 143 -9 90 -34 -60 -61 -88 -108 -112 -41 -21 -165
-35 -210 -24 l-26 6 0 328 c0 280 2 331 16 350 8 12 22 22 30 22 8 0 12 5 9
10 -4 6 -73 10 -176 10 -106 0 -169 -4 -169 -10z"/>
<path d="M7000 3160 c0 -5 6 -10 14 -10 8 0 22 -10 30 -22 14 -19 16 -70 16
-349 0 -312 -1 -327 -20 -352 -11 -14 -30 -28 -43 -30 -12 -2 91 -5 230 -6
152 0 273 3 305 10 128 27 219 97 271 207 29 62 32 75 31 167 -1 130 -25 198
-98 270 -102 101 -196 124 -518 125 -139 0 -218 -4 -218 -10z m487 -85 c21
-18 51 -57 68 -90 28 -55 30 -70 34 -182 2 -103 0 -134 -18 -192 -37 -121
-113 -176 -234 -169 l-52 3 -3 320 c-1 176 0 326 3 333 4 11 24 13 84 11 70
-4 84 -7 118 -34z"/>
<path d="M3218 2541 c-28 -24 -33 -36 -32 -71 2 -48 31 -86 76 -95 94 -21 157
97 89 166 -40 40 -89 40 -133 0z"/>
<path d="M4292 1214 c-29 -14 -61 -39 -73 -56 -67 -94 -51 -223 36 -296 91
-75 203 -68 286 18 171 176 -28 444 -249 334z m62 -110 c21 -8 21 -50 0 -58
-32 -12 -57 27 -32 52 14 14 12 14 32 6z m110 -17 c16 -25 -16 -56 -38 -37
-19 15 -20 32 -4 48 15 15 28 11 42 -11z m-96 -105 c4 -28 -24 -41 -44 -20
-20 20 -7 50 20 46 13 -2 22 -12 24 -26z m97 -2 c0 -18 -6 -26 -23 -28 -24 -4
-38 18 -28 44 3 9 15 14 28 12 17 -2 23 -10 23 -28z"/>
</g>
</svg>
