<?xml version="1.0" standalone="no"?>
<!DOCTYPE svg PUBLIC "-//W3C//DTD SVG 20010904//EN"
 "http://www.w3.org/TR/2001/REC-SVG-20010904/DTD/svg10.dtd">
<svg version="1.0" xmlns="http://www.w3.org/2000/svg"
 width="847.000000pt" height="162.000000pt" viewBox="0 0 847.000000 162.000000"
 preserveAspectRatio="xMidYMid meet">

<g transform="translate(0.000000,162.000000) scale(0.100000,-0.100000)"
fill="#000000" stroke="none">
<path d="M4393 1271 c-145 -37 -242 -184 -268 -403 -4 -32 -11 -58 -15 -58 -5
0 -16 -7 -25 -16 -15 -16 -15 -18 9 -38 20 -17 28 -37 40 -111 48 -283 266
-437 472 -332 83 42 177 160 160 202 -10 27 -28 13 -64 -49 -39 -67 -107 -116
-159 -116 -128 0 -213 173 -213 435 0 275 91 448 220 420 59 -13 123 -92 143
-176 7 -28 34 -46 49 -31 5 5 7 69 6 143 -2 108 -6 134 -17 134 -8 0 -19 -15
-23 -33 -5 -18 -15 -35 -23 -38 -7 -3 -43 10 -78 30 -68 39 -152 53 -214 37z"/>
<path d="M5535 1271 c-88 -22 -181 -104 -227 -201 -24 -51 -58 -184 -58 -229
0 -11 -12 -29 -27 -40 l-28 -21 28 -21 c15 -11 27 -29 27 -40 0 -47 34 -179
60 -234 35 -73 103 -145 168 -177 70 -34 188 -33 257 4 120 62 193 193 220
390 4 34 11 49 26 53 25 8 24 23 -4 49 -18 17 -25 37 -30 87 -7 81 -47 190
-93 252 -77 106 -202 156 -319 128z m109 -82 c59 -47 93 -161 102 -344 18
-346 -86 -583 -201 -461 -58 62 -84 188 -85 413 0 192 38 346 98 393 32 25 53
25 86 -1z"/>
<path d="M253 1253 c-4 -10 -1 -19 6 -21 8 -3 22 -13 32 -23 17 -17 19 -36 19
-203 l0 -184 -27 -20 -28 -20 28 -26 27 -25 0 -185 0 -185 -31 -24 c-48 -37
-31 -47 82 -47 90 0 99 2 99 19 0 10 -9 21 -20 24 -11 3 -24 17 -30 32 -12 31
-14 421 -2 429 4 2 25 -71 45 -162 21 -92 47 -206 58 -255 l21 -87 99 0 c54 0
99 3 99 8 0 16 110 496 115 500 3 3 5 -97 5 -221 l0 -226 -31 -16 c-59 -31
-31 -40 129 -43 140 -2 152 -1 152 15 0 10 -10 23 -22 28 -23 10 -23 14 -26
207 -2 189 -2 198 18 210 25 16 26 34 0 50 -19 12 -20 24 -20 211 l0 197 25
12 c15 7 24 18 23 27 -3 13 -23 16 -121 19 -114 3 -117 2 -126 -20 -5 -13 -43
-176 -85 -363 -81 -358 -84 -370 -90 -364 -3 2 -39 155 -81 339 -42 184 -80
352 -86 373 l-10 37 -120 0 c-103 0 -121 -2 -126 -17z"/>
<path d="M1553 1253 c-4 -9 -2 -18 4 -20 5 -2 19 -10 29 -18 18 -12 19 -29 19
-205 0 -189 0 -193 -22 -207 -13 -9 -23 -21 -23 -28 0 -7 10 -19 23 -27 21
-15 22 -22 25 -184 3 -179 -4 -222 -38 -231 -11 -3 -20 -14 -20 -24 0 -19 8
-19 152 -17 160 3 188 12 129 43 l-31 16 0 159 0 160 69 0 c125 0 146 -20 167
-166 17 -109 30 -140 74 -178 37 -30 126 -59 172 -54 27 2 34 8 36 30 3 23 -2
30 -32 42 -44 18 -50 34 -64 154 -13 106 -35 155 -88 191 -32 22 -33 25 -17
34 56 29 120 118 137 189 3 15 15 32 26 38 25 13 26 37 1 45 -11 3 -27 29 -41
67 -37 102 -123 170 -248 197 -29 6 -138 11 -243 11 -169 0 -190 -2 -196 -17z
m369 -63 c83 -23 136 -130 125 -251 -11 -129 -80 -199 -194 -199 l-53 0 0 230
0 230 43 0 c23 0 58 -5 79 -10z"/>
<path d="M6451 1256 c-10 -12 -8 -17 11 -27 13 -7 26 -17 30 -23 4 -6 8 -95 8
-198 l0 -186 -27 -21 -28 -21 28 -21 27 -21 0 -194 0 -193 -31 -16 c-68 -36
-36 -40 297 -40 l319 0 19 92 c22 105 17 146 -17 141 -15 -2 -32 -22 -55 -66
-49 -93 -69 -102 -219 -102 l-122 0 2 186 c2 179 3 186 25 204 28 23 28 33 -3
64 l-26 26 3 181 c3 164 5 182 22 194 10 8 24 16 29 18 6 2 8 11 4 20 -6 15
-24 17 -145 17 -109 0 -142 -3 -151 -14z"/>
<path d="M7567 1256 c-4 -10 2 -20 16 -27 12 -7 25 -17 29 -23 4 -6 8 -95 8
-198 l0 -186 -27 -21 -28 -21 28 -21 27 -21 0 -194 0 -193 -31 -16 c-64 -34
-33 -40 192 -40 214 0 214 0 271 28 31 15 73 46 93 69 55 60 103 169 116 263
10 66 16 84 38 103 l26 22 -27 23 c-21 17 -28 34 -33 81 -19 161 -104 299
-221 357 -46 23 -60 24 -260 27 -185 3 -212 2 -217 -12z m374 -79 c71 -47 103
-127 120 -294 7 -73 7 -135 0 -212 -23 -221 -81 -311 -205 -311 l-46 0 0 413
c0 228 3 417 7 420 15 16 91 6 124 -16z"/>
<path d="M2825 478 c-59 -32 -75 -114 -31 -161 66 -71 176 -28 176 67 -1 79
-80 130 -145 94z"/>
</g>
</svg>
